Screenshots:
 
http://imageshack.us/a/img96/2528/dabangg2poster.jpg 
http://imageshack.us/a/img703/2874/vlcsnap2012122814h29m18.png 
http://imageshack.us/a/img827/9104/vlcsnap2012122814h29m13.png 
http://imageshack.us/a/img407/5530/vlcsnap2012122814h29m09.png 
http://imageshack.us/a/img404/1773/vlcsnap2012122814h29m06.png 
http://imageshack.us/a/img407/5181/vlcsnap2012122814h29m01.png

NFO:

Release Date: 21 Dec 2012
Genre: Action - Comedy
Language: Hindi
Certification: U/A
Director: Arbaaz Khan
Producer: Arbaaz Khan
Cast: Salman Khan as Chulbul Pandey 
Sonakshi Sinha as Rajjo Pandey

Dabangg 2 is the sequel to the 2010 blockbuster film Dabangg. The plot moved away from the UP hinterland to probably Kanpur.

The film will feature Salman Khan and Sonakshi Sinha reprising their roles from the previous film, whilst Prakash Raj plays the main antagonist. 

In Dabangg 2, Chulbul Pandey has to battle the evil goon turned politician Baccha Bhaiyya. As he tries to strengthen his family ties with his father and brother. And romance his newly wed wife. And remain 'Dabangg' (fearless) no matter what.

Format : MPEG-4
Format profile : Base Media
Codec ID : isom
File size : 1.45 GiB
Duration : 2h 1mn
Overall bit rate mode : Variable
Overall bit rate : 1 713 Kbps
Movie name : Video_Dabangg 2 (2012)


Video
ID : 1
Format : MPEG-4 Visual
Format profile : Simple@L1
Format settings, BVOP : No
Format settings, QPel : No
Format settings, GMC : No warppoints
Format settings, Matrix : Default (H.263)
Codec ID : 20
Duration : 2h 1mn
Bit rate : 1 600 Kbps
Width : 640 pixels
Height : 272 pixels
Display aspect ratio : 2.35:1
Frame rate mode : Constant
Frame rate : 23.976 fps
Color space : YUV
Chroma subsampling : 4:2:0
Bit depth : 8 bits
Scan type : Progressive
Compression mode : Lossy
Bits/(Pixel*Frame) : 0.383
Stream size : 1.35 GiB (93%)

Audio
ID : 2
Format : AAC
Format/Info : Advanced Audio Codec
Format profile : LC
Codec ID : 40
Duration : 2h 1mn
Bit rate mode : Variable
Bit rate : 110 Kbps
Channel(s) : 2 channels
Channel positions : Front: L R
Sampling rate : 32.0 KHz
Compression mode : Lossy
Stream size : 95.5 MiB (6%)